<svg width="106" height="106" viewBox="0 0 106 106" fill="none" xmlns="http://www.w3.org/2000/svg">
<g filter="url(#filter0_d_3_1995)">
<circle cx="53" cy="48" r="40" fill="#193156"/>
</g>
<g clip-path="url(#clip0_3_1995)">
<path d="M37 41.3333C37 40.4493 37.3512 39.6014 37.9763 38.9763C38.6014 38.3512 39.4493 38 40.3333 38H63.6667C64.5507 38 65.3986 38.3512 66.0237 38.9763C66.6488 39.6014 67 40.4493 67 41.3333V58C67 58.8841 66.6488 59.7319 66.0237 60.357C65.3986 60.9821 64.5507 61.3333 63.6667 61.3333H40.3333C39.4493 61.3333 38.6014 60.9821 37.9763 60.357C37.3512 59.7319 37 58.8841 37 58V41.3333Z" stroke="white" stroke-width="3" stroke-linecap="round" stroke-linejoin="round"/>
<path d="M42 38V34.6666" stroke="white" stroke-width="3" stroke-linecap="round" stroke-linejoin="round"/>
<path d="M63.667 34.6666V38" stroke="white" stroke-width="3" stroke-linecap="round" stroke-linejoin="round"/>
<path d="M42.833 49.6666H47.833" stroke="white" stroke-width="3" stroke-linecap="round" stroke-linejoin="round"/>
<path d="M56.167 49.6666H61.167" stroke="white" stroke-width="3" stroke-linecap="round" stroke-linejoin="round"/>
<path d="M58.667 47.1666V52.1666" stroke="white" stroke-width="3" stroke-linecap="round" stroke-linejoin="round"/>
</g>
<defs>
<filter id="filter0_d_3_1995" x="0" y="0" width="106" height="106" filterUnits="userSpaceOnUse" color-interpolation-filters="sRGB">
<feFlood flood-opacity="0" result="BackgroundImageFix"/>
<feColorMatrix in="SourceAlpha" type="matrix" values="0 0 0 0 0 0 0 0 0 0 0 0 0 0 0 0 0 0 127 0" result="hardAlpha"/>
<feMorphology radius="1" operator="dilate" in="SourceAlpha" result="effect1_dropShadow_3_1995"/>
<feOffset dy="5"/>
<feGaussianBlur stdDeviation="6"/>
<feComposite in2="hardAlpha" operator="out"/>
<feColorMatrix type="matrix" values="0 0 0 0 0 0 0 0 0 0.262745 0 0 0 0 0.458824 0 0 0 0.15 0"/>
<feBlend mode="normal" in2="BackgroundImageFix" result="effect1_dropShadow_3_1995"/>
<feBlend mode="normal" in="SourceGraphic" in2="effect1_dropShadow_3_1995" result="shape"/>
</filter>
<clipPath id="clip0_3_1995">
<rect width="40" height="40" fill="white" transform="translate(32 28)"/>
</clipPath>
</defs>
</svg>
