<svg viewBox="0 0 106 106" fill="none" xmlns="http://www.w3.org/2000/svg">
<g filter="url(#filter0_d_3_1994)">
<circle cx="53" cy="48" r="40" fill="#193156"/>
</g>
<path fill-rule="evenodd" clip-rule="evenodd" d="M43.0678 31.3768C43.0943 31.3757 43.1208 31.3752 43.1473 31.3752H47.6704C47.6815 31.375 47.6926 31.375 47.7036 31.3752H47.7577C48.0682 31.3752 48.3745 31.4475 48.6522 31.5863L55.6224 35.0714C56.2999 35.4102 56.7279 36.1027 56.7279 36.8603V38.6847V41.127C56.7279 41.6792 56.2802 42.127 55.7279 42.127C55.1756 42.127 54.7279 41.6792 54.7279 41.127V39.6847H49.8032L53.3153 62.894C53.5783 64.6315 51.6334 65.8391 50.1927 64.8329L45.4537 61.5232L40.4726 64.895C39.0289 65.8723 37.1131 64.6633 37.374 62.9396L40.893 39.6847H36.375V41.127C36.375 41.6792 35.9273 42.127 35.375 42.127C34.8227 42.127 34.375 41.6792 34.375 41.127V38.6847V36.8529C34.375 36.1031 34.7944 35.4163 35.4614 35.0737L42.2337 31.5961C42.3775 31.5222 42.5293 31.4663 42.6855 31.4293C42.8055 31.3879 42.9349 31.369 43.0678 31.3768ZM36.375 37.6847H41.1956L41.7382 34.0988L36.375 36.8529V37.6847ZM41.3893 49.772L40.8208 53.5289L43.5536 51.4357L41.3893 49.772ZM42.9335 48.4364L45.1974 50.1766L47.4694 48.4364H42.9335ZM45.1952 52.6976L41.6779 55.3917H48.7L45.1952 52.6976ZM49.9172 53.8047L46.839 51.4385L49.2766 49.5714L49.9172 53.8047ZM43.6151 42.7228L42.3014 43.7446L42.584 41.877L43.6151 42.7228ZM43.1128 39.6847H47.5213L45.2585 41.4446L43.1128 39.6847ZM46.8441 42.7451L48.0962 41.7712L48.4419 44.0557L46.8441 42.7451ZM45.2007 44.0233L42.0982 46.4364H48.1426L45.2007 44.0233ZM45.4714 59.096L43.0312 57.3917H47.9892L45.4714 59.096ZM47.4778 37.6847H43.2184L43.8705 33.3752L46.8257 33.3752L47.4778 37.6847ZM49.5006 37.6847H54.7279V36.8603L48.9378 33.9652L49.5006 37.6847ZM47.2275 60.3225L50.5619 58.0653L51.3379 63.1932L47.2275 60.3225ZM40.1695 57.8326L43.6977 60.2967L39.3515 63.2388L40.1695 57.8326Z" fill="white"/>
<path fill-rule="evenodd" clip-rule="evenodd" d="M63.0787 43.8216C63.1146 43.8192 63.1507 43.818 63.1868 43.818H65.9797L66.0016 43.8181C66.0283 43.8174 66.0548 43.8184 66.0808 43.8212C66.2943 43.8347 66.5033 43.8909 66.6952 43.9869L70.9027 46.0906C71.4448 46.3617 71.7872 46.9157 71.7872 47.5217V48.4735V50.0435C71.7872 50.3749 71.5185 50.6435 71.1872 50.6435C70.8558 50.6435 70.5872 50.3749 70.5872 50.0435V49.0735H67.3288L69.4693 63.2188C69.6797 64.6088 68.1238 65.5749 66.9712 64.7699L64.5833 63.1022L62.0327 64.8287C60.8777 65.6105 59.3451 64.6433 59.5538 63.2644L61.7012 49.0735H58.7045V50.0435C58.7045 50.3749 58.4359 50.6435 58.1045 50.6435C57.7731 50.6435 57.5045 50.3749 57.5045 50.0435V48.4735V47.5143C57.5045 46.9145 57.84 46.365 58.3736 46.091L62.4559 43.9947C62.5496 43.9466 62.6475 43.908 62.7481 43.8793C62.8475 43.8304 62.9613 43.8085 63.0787 43.8216ZM58.7045 47.8735H61.8828L62.2495 45.4496L58.9218 47.1585C58.7884 47.227 58.7045 47.3644 58.7045 47.5143V47.8735ZM61.939 55.5222L61.5468 58.1138L63.432 56.6699L61.939 55.5222ZM62.8373 54.6992L64.4182 55.9144L66.0049 54.6992H62.8373ZM64.4169 57.427L62.0298 59.2554H66.7955L64.4169 57.427ZM67.51 58.2911L65.4032 56.6716L67.0716 55.3937L67.51 58.2911ZM63.47 51.0697L62.4984 51.8254L62.7074 50.4442L63.47 51.0697ZM62.9573 49.0735H66.0365L64.456 50.3028L62.9573 49.0735ZM65.4074 51.0831L66.3127 50.3789L66.5627 52.0307L65.4074 51.0831ZM64.4213 51.85L62.301 53.4992H66.4319L64.4213 51.85ZM64.5939 61.6459L62.8894 60.4554H66.3525L64.5939 61.6459ZM65.9336 47.8735H63.0964L63.5285 45.018H65.5015L65.9336 47.8735ZM67.1473 47.8735H70.5872V47.5217C70.5872 47.3702 70.5016 47.2317 70.366 47.164L66.7676 45.3647L67.1473 47.8735ZM65.6475 62.3817L67.8985 60.858L68.2829 63.3983C68.3354 63.7458 67.9465 63.9873 67.6583 63.7861L65.6475 62.3817ZM61.1544 60.7074L63.5297 62.3663L61.36 63.835C61.0712 64.0304 60.6881 63.7887 60.7403 63.4439L61.1544 60.7074Z" fill="white"/>
<defs>
<filter id="filter0_d_3_1994" x="0" y="0" width="106" height="106" filterUnits="userSpaceOnUse" color-interpolation-filters="sRGB">
<feFlood flood-opacity="0" result="BackgroundImageFix"/>
<feColorMatrix in="SourceAlpha" type="matrix" values="0 0 0 0 0 0 0 0 0 0 0 0 0 0 0 0 0 0 127 0" result="hardAlpha"/>
<feMorphology radius="1" operator="dilate" in="SourceAlpha" result="effect1_dropShadow_3_1994"/>
<feOffset dy="5"/>
<feGaussianBlur stdDeviation="6"/>
<feComposite in2="hardAlpha" operator="out"/>
<feColorMatrix type="matrix" values="0 0 0 0 0 0 0 0 0 0.262745 0 0 0 0 0.458824 0 0 0 0.15 0"/>
<feBlend mode="normal" in2="BackgroundImageFix" result="effect1_dropShadow_3_1994"/>
<feBlend mode="normal" in="SourceGraphic" in2="effect1_dropShadow_3_1994" result="shape"/>
</filter>
</defs>
</svg>
