<?xml version="1.0" encoding="UTF-8"?>
<svg id="Layer_1" data-name="Layer 1" xmlns="http://www.w3.org/2000/svg" version="1.1" viewBox="0 0 212.6 212.6">
  <defs>
    <style>
      .cls-1 {
        fill: #103259;
        stroke-width: 0px;
      }
    </style>
  </defs>
  <ellipse class="cls-1" cx="49.9" cy="91.9" rx="15.8" ry="22.4"/>
  <ellipse class="cls-1" cx="162.7" cy="90.3" rx="15.8" ry="22.4"/>
  <ellipse class="cls-1" cx="82.8" cy="58.8" rx="15.8" ry="22.4"/>
  <ellipse class="cls-1" cx="128.4" cy="58.8" rx="15.8" ry="22.4"/>
  <path class="cls-1" d="M171.2,139.2c-1.3-10-6-17.3-15.2-22.2-6.1-3.2-11.6-7.7-17.1-12-4.4-3.5-8.3-7.6-12.6-11.2-12.3-10-26.1-10.6-38.4-.5-13.2,10.8-25.8,22.3-38.4,33.8-8.5,7.8-9.7,17.6-6.3,28.2,3.5,10.9,10.6,17.6,21.9,19.8,9.7,1.8,19.1.4,28.2-3,3.1-1.1,6.1-1.9,9.2-2.3l2.4-40.8c-.2.3-.5.6-.9.9-1.5,1-6.2,2.1-6.2,2.1,0,0-12.2,3.6-14,3.6-1.8,0-1-1.5-1-1.5l14.6-10s2.5-1.8,4.5-1.8c.5,0,1,.3,1.4.7.2-.9.7-1.7,1.4-2.3-.5-.5-1.3-1.4-1.3-2.6,0-1.8,1.5-6.4,1.5-6.4,0,0,3.3-12.3,4.2-13.8s1.8,0,1.8,0l.9,17.6s.2,3-.8,4.8c-.1.2-.3.4-.5.5.8.7,1.4,1.7,1.5,2.9.6,0,1.4,0,2.1.3,1.6.9,4.9,4.4,4.9,4.4,0,0,9,8.9,10,10.5s-.8,1.6-.8,1.6l-15.8-7.9s-1.7-.8-2.9-2l2.6,39.3c2.9.4,5.8,1.1,8.7,2.1,4.7,1.6,9.7,2.5,14.6,3.4,5.2,1,10.5.8,15.6-.7,7.4-2.2,12.6-6.5,16.3-13.9,3.5-6.8,4.9-14.2,3.9-21.8Z"/>
</svg>