<?xml version="1.0" encoding="UTF-8"?>
<svg id="Layer_1" data-name="Layer 1" xmlns="http://www.w3.org/2000/svg" version="1.1" viewBox="0 0 212.6 212.6">
  <defs>
    <style>
      .cls-1 {
        fill: #103259;
      }

      .cls-1, .cls-2 {
        stroke-width: 0px;
      }

      .cls-2 {
        fill: #171718;
      }
    </style>
  </defs>
  <g>
    <ellipse class="cls-1" cx="47.7" cy="70.3" rx="15.8" ry="22.4"/>
    <ellipse class="cls-1" cx="160.5" cy="68.7" rx="15.8" ry="22.4"/>
    <ellipse class="cls-1" cx="80.7" cy="37.2" rx="15.8" ry="22.4"/>
    <ellipse class="cls-1" cx="126.2" cy="37.2" rx="15.8" ry="22.4"/>
    <path class="cls-1" d="M169,117.7c-1.3-10-6-17.3-15.2-22.2-6.1-3.2-11.6-7.7-17.1-12-4.4-3.5-8.3-7.6-12.6-11.2-12.3-10-26.1-10.6-38.4-.5-13.2,10.8-25.8,22.3-38.4,33.8-8.5,7.8-9.7,17.6-6.3,28.2,3.5,10.9,10.6,17.6,21.9,19.8,9.7,1.8,19.1.4,28.2-3,3.1-1.1,6.1-1.9,9.2-2.3l2.4-40.8c-.2.3-.5.6-.9.9-1.5,1-6.2,2.1-6.2,2.1,0,0-12.2,3.6-14,3.6-1.8,0-1-1.5-1-1.5l14.6-10s2.5-1.8,4.5-1.8c.5,0,1,.3,1.4.7.2-.9.7-1.7,1.4-2.3-.5-.5-1.3-1.4-1.3-2.6,0-1.8,1.5-6.4,1.5-6.4,0,0,3.3-12.3,4.2-13.8s1.8,0,1.8,0l.9,17.6s.2,3-.8,4.8c-.1.2-.3.4-.5.5.8.7,1.4,1.7,1.5,2.9.6,0,1.4,0,2.1.3,1.6.9,4.9,4.4,4.9,4.4,0,0,9,8.9,10,10.5s-.8,1.6-.8,1.6l-15.8-7.9s-1.7-.8-2.9-2l2.6,39.3c2.9.4,5.8,1.1,8.7,2.1,4.7,1.6,9.7,2.5,14.6,3.4,5.2,1,10.5.8,15.6-.7,7.4-2.2,12.6-6.5,16.3-13.9,3.5-6.8,4.9-14.2,3.9-21.8Z"/>
  </g>
  <g>
    <path class="cls-2" d="M27,177.9h11.4c0,1.2,0,2.2-.1,3.2,0,1-.3,1.8-.6,2.7-.4,1.2-1,2.2-1.7,3.1-.7.9-1.5,1.6-2.5,2.2-.9.6-2,1-3.1,1.4s-2.3.5-3.6.5-3.3-.3-4.7-.8c-1.4-.6-2.6-1.4-3.6-2.4-1-1-1.8-2.3-2.4-3.7-.6-1.4-.8-3-.8-4.8s.3-3.3.8-4.7c.6-1.4,1.3-2.7,2.4-3.7,1-1,2.3-1.8,3.7-2.4,1.4-.6,3.1-.8,4.8-.8s4.3.5,6.1,1.5,3.1,2.5,4.1,4.6l-5.4,2.3c-.5-1.2-1.2-2.1-2-2.6-.8-.5-1.7-.8-2.8-.8s-1.6.2-2.3.5c-.7.3-1.3.8-1.8,1.4-.5.6-.9,1.3-1.2,2.2-.3.8-.4,1.8-.4,2.8s.1,1.8.4,2.6c.2.8.6,1.5,1.1,2.1s1.1,1,1.8,1.4c.7.3,1.6.5,2.5.5s1.1,0,1.6-.2,1-.3,1.4-.6c.4-.3.8-.6,1-1.1.3-.4.5-1,.6-1.6h-4.7v-4.4Z"/>
    <path class="cls-2" d="M41.9,175.3h5.3v2.5c.6-.9,1.3-1.6,2.1-2.1.8-.5,1.8-.7,2.9-.7h.5c.2,0,.4,0,.6,0v5.1c-.7-.4-1.5-.5-2.3-.5-1.2,0-2.2.4-2.8,1.1-.6.7-.9,1.8-.9,3.2v6.4h-5.3v-15Z"/>
    <path class="cls-2" d="M55.6,169.5c0-.4,0-.8.2-1.2.2-.4.4-.7.6-1,.3-.3.6-.5.9-.6.4-.2.7-.2,1.2-.2s.8,0,1.2.2c.4.2.7.4,1,.6.3.3.5.6.6,1,.2.4.2.7.2,1.2s0,.8-.2,1.2c-.2.4-.4.7-.6,1s-.6.5-1,.6c-.4.2-.7.2-1.2.2s-.8,0-1.2-.2c-.4-.2-.7-.4-.9-.6-.3-.3-.5-.6-.6-1-.2-.4-.2-.7-.2-1.2ZM61.2,175.3v15h-5.3v-15h5.3Z"/>
    <path class="cls-2" d="M75.8,166h5.3v24.3h-5.3v-1.7c-1.1,1.4-2.7,2.1-4.6,2.1s-2.1-.2-3-.6c-.9-.4-1.7-1-2.4-1.7-.7-.7-1.2-1.6-1.6-2.5s-.6-2-.6-3.2.2-2.1.5-3.1c.4-1,.9-1.8,1.5-2.5.7-.7,1.5-1.3,2.4-1.7.9-.4,1.9-.6,3.1-.6,1.9,0,3.4.7,4.7,2v-10.8ZM69.1,182.7c0,.5,0,.9.3,1.4s.4.8.7,1.1c.3.3.7.6,1.1.7.4.2.9.3,1.4.3s.9,0,1.3-.3.8-.4,1.1-.7c.3-.3.5-.7.7-1.1.2-.4.3-.8.3-1.3s0-.9-.3-1.3c-.2-.4-.4-.8-.7-1.1-.3-.3-.7-.6-1.1-.7s-.9-.3-1.3-.3-.9,0-1.3.3c-.4.2-.8.4-1.1.7-.3.3-.5.7-.7,1.1s-.3.8-.3,1.3Z"/>
    <path class="cls-2" d="M90.4,166v24.3h-5.3v-24.3h5.3Z"/>
    <path class="cls-2" d="M100.2,188.2l-7.3-13h6.1l4,7.7,3.9-7.7h6.1l-12.1,22.5h-5.9l5.1-9.5Z"/>
    <path class="cls-2" d="M125.7,168.2h8.5c2,0,3.6.5,4.6,1.5,1.1,1,1.6,2.4,1.6,4.2s-.2,2-.6,2.8c-.4.7-1,1.4-1.8,1.9.8.2,1.5.4,2.1.7.6.3,1,.7,1.4,1.2.4.5.6,1,.8,1.6.2.6.2,1.2.2,1.9,0,1-.2,2-.5,2.8s-.9,1.5-1.5,2c-.7.5-1.4,1-2.4,1.2s-2,.4-3.2.4h-9.2v-22.1ZM131.5,176.9h1.1c1.8,0,2.7-.7,2.7-2.1s-.9-2.1-2.7-2.1h-1.1v4.3ZM131.5,185.8h1.3c1.4,0,2.5-.2,3.1-.6.6-.4.9-1,.9-1.8s-.3-1.4-.9-1.8c-.6-.4-1.7-.6-3.1-.6h-1.3v4.7Z"/>
    <path class="cls-2" d="M150.6,183.7c0,2.3,1.1,3.4,3.2,3.4s2-.5,2.6-1.4h5.1c-1,3.4-3.6,5.1-7.8,5.1s-2.4-.2-3.5-.6c-1.1-.4-2-.9-2.7-1.6-.8-.7-1.3-1.5-1.7-2.5-.4-1-.6-2.1-.6-3.3s.2-2.4.6-3.4c.4-1,.9-1.9,1.7-2.6.7-.7,1.6-1.2,2.6-1.6s2.2-.6,3.5-.6,2.4.2,3.4.6c1,.4,1.9.9,2.6,1.7s1.2,1.6,1.6,2.6.6,2.2.6,3.5v.6h-11.1ZM156.8,180.6c-.2-.7-.5-1.3-1.1-1.8-.5-.4-1.2-.7-2-.7s-1.5.2-2,.6-.8,1-1,1.8h6.1Z"/>
    <path class="cls-2" d="M176.8,175.3h5.3v15h-5.3v-1.7c-1.1,1.4-2.7,2.1-4.6,2.1s-2.1-.2-3-.6-1.7-1-2.4-1.7c-.7-.7-1.2-1.6-1.6-2.5-.4-1-.6-2-.6-3.2s.2-2.1.6-3.1c.4-1,.9-1.8,1.6-2.5.7-.7,1.5-1.3,2.4-1.7.9-.4,1.9-.6,3-.6,1.9,0,3.4.7,4.7,2v-1.5ZM170.1,182.7c0,.5,0,.9.3,1.4.2.4.4.8.7,1.1.3.3.7.6,1.1.7s.9.3,1.4.3.9,0,1.3-.3.8-.4,1.1-.7c.3-.3.5-.7.7-1.1.2-.4.3-.8.3-1.3s0-.9-.3-1.3c-.2-.4-.4-.8-.7-1.1s-.7-.6-1.1-.7-.9-.3-1.3-.3-.9,0-1.4.3-.8.4-1.1.7-.5.7-.7,1.1c-.2.4-.3.8-.3,1.3Z"/>
    <path class="cls-2" d="M186.1,175.3h5.3v2.5c.6-.9,1.3-1.6,2.1-2.1.8-.5,1.8-.7,2.9-.7h.5c.2,0,.4,0,.6,0v5.1c-.7-.4-1.5-.5-2.3-.5-1.2,0-2.2.4-2.8,1.1-.6.7-.9,1.8-.9,3.2v6.4h-5.3v-15Z"/>
  </g>
</svg>