<svg viewBox="0 0 106 106" fill="none" xmlns="http://www.w3.org/2000/svg">
<g filter="url(#filter0_d_3_1992)">
<circle cx="53" cy="48" r="40" fill="#193156"/>
</g>
<path fill-rule="evenodd" clip-rule="evenodd" d="M44.0752 29.5C44.0752 28.6716 43.4036 28 42.5752 28C41.7468 28 41.0752 28.6716 41.0752 29.5V32.5265H40.5391C39.4345 32.5265 38.5391 33.4219 38.5391 34.5265V37.0837C38.5391 38.1883 39.4345 39.0837 40.5391 39.0837H41.5V40.5968H40C36.6863 40.5968 34 43.2831 34 46.5968V59.3124C34 62.6261 36.6863 65.3124 40 65.3124H40.5582C40.5578 65.3293 40.5576 65.3462 40.5576 65.3632C40.5576 66.4678 41.453 67.3808 42.5576 67.3808H45.6192C46.7238 67.3808 47.6192 66.4678 47.6192 65.3632C47.6192 65.3462 47.619 65.3293 47.6186 65.3124H59.2213C59.2209 65.3293 59.2207 65.3462 59.2207 65.3632C59.2207 66.4678 60.1161 67.3808 61.2207 67.3808H64.2823C65.3869 67.3808 66.2823 66.4678 66.2823 65.3632L66.2821 65.3358L66.2817 65.3124H66.3344C69.6481 65.3124 72.3344 62.6261 72.3344 59.3124V46.5968C72.3344 43.2831 69.6481 40.5968 66.3344 40.5968H64.5V39.0837H65.2911C66.3957 39.0837 67.2911 38.1883 67.2911 37.0837V34.5265C67.2911 33.4219 66.3957 32.5265 65.2911 32.5265H64.7549V29.5C64.7549 28.6716 64.0833 28 63.2549 28C62.4265 28 61.7549 28.6716 61.7549 29.5V32.5265H61.2207C60.1161 32.5265 59.2207 33.4219 59.2207 34.5265V37.0837C59.2207 38.1883 60.1161 39.0837 61.2207 39.0837H61.5V40.5968H54.5V39.0837H55.2032C56.3078 39.0837 57.2032 38.1883 57.2032 37.0837V34.5265C57.2032 33.4219 56.3078 32.5265 55.2032 32.5265H54.667V29.5C54.667 28.6716 53.9954 28 53.167 28C52.3386 28 51.667 28.6716 51.667 29.5V32.5265H51.1328C50.0282 32.5265 49.1328 33.4219 49.1328 34.5265V37.0837C49.1328 38.1883 50.0282 39.0837 51.1328 39.0837H51.5V40.5968H44.5V39.0837H44.6095C45.714 39.0837 46.6095 38.1883 46.6095 37.0837V34.5265C46.6095 33.4219 45.714 32.5265 44.6095 32.5265H44.0752V29.5ZM44.6095 34.5265L40.5391 34.5265V37.0837H44.6095V34.5265ZM55.2032 34.5265L51.1328 34.5265V37.0837H55.2032V34.5265ZM61.2207 34.5265L65.2911 34.5265V37.0837H61.2207V34.5265ZM66.3344 42.5968H40C37.7909 42.5968 36 44.3877 36 46.5968V59.3124C36 61.5215 37.7909 63.3124 40 63.3124H66.3344C68.5435 63.3124 70.3344 61.5215 70.3344 59.3124V46.5968C70.3344 44.3877 68.5435 42.5968 66.3344 42.5968ZM56.1389 48.4855C56.5391 46.4122 53.8706 45.214 52.587 46.8906L48.5599 52.1511C47.5525 53.467 48.4908 55.3669 50.148 55.3669H51.5408L50.9474 57.7058C50.4369 59.7179 52.9509 61.0795 54.3571 59.5526L58.9151 54.6032C60.0954 53.3215 59.1863 51.2484 57.4439 51.2484H55.6055L56.1389 48.4855ZM50.148 53.3669L54.1751 48.1064L53.6417 50.8693C53.4035 52.1032 54.3488 53.2484 55.6055 53.2484H57.4439L52.8859 58.1977L53.4794 55.8587C53.8001 54.5948 52.8449 53.3669 51.5408 53.3669H50.148Z" fill="white"/>
<defs>
<filter id="filter0_d_3_1992" x="0" y="0" width="106" height="106" filterUnits="userSpaceOnUse" color-interpolation-filters="sRGB">
<feFlood flood-opacity="0" result="BackgroundImageFix"/>
<feColorMatrix in="SourceAlpha" type="matrix" values="0 0 0 0 0 0 0 0 0 0 0 0 0 0 0 0 0 0 127 0" result="hardAlpha"/>
<feMorphology radius="1" operator="dilate" in="SourceAlpha" result="effect1_dropShadow_3_1992"/>
<feOffset dy="5"/>
<feGaussianBlur stdDeviation="6"/>
<feComposite in2="hardAlpha" operator="out"/>
<feColorMatrix type="matrix" values="0 0 0 0 0 0 0 0 0 0.262745 0 0 0 0 0.458824 0 0 0 0.15 0"/>
<feBlend mode="normal" in2="BackgroundImageFix" result="effect1_dropShadow_3_1992"/>
<feBlend mode="normal" in="SourceGraphic" in2="effect1_dropShadow_3_1992" result="shape"/>
</filter>
</defs>
</svg>
