<svg viewBox="0 0 106 106" fill="none" xmlns="http://www.w3.org/2000/svg">
<g filter="url(#filter0_d_3_1989)">
<circle cx="53" cy="48" r="40" fill="#193156"/>
</g>
<path fill-rule="evenodd" clip-rule="evenodd" d="M59.2774 28.5698C57.8611 28.3728 55.5461 28.4771 54.2081 30.3886C53.4783 31.4311 52.7608 33.0498 52.1725 34.5743C51.6827 35.8435 51.2587 37.1111 50.9679 38.0546C49.3903 38.8123 48.222 40.2863 47.8845 42.0551L39.6854 45.608C38.6835 46.0422 38.0667 47.3673 38.878 48.4406C39.7402 49.5815 41.4508 51.1446 43.7486 50.7391C45.0333 50.5124 46.453 49.8697 47.7034 49.2157C48.4823 48.8083 49.2829 48.3472 49.9614 47.9563L50.2761 47.7753C50.7933 48.1217 51.3713 48.3843 51.9908 48.5437V63.544H47.3174C46.7651 63.544 46.3174 63.9917 46.3174 64.544C46.3174 65.0962 46.7651 65.544 47.3174 65.544H59.0005C59.5527 65.544 60.0005 65.0962 60.0005 64.544C60.0005 63.9917 59.5527 63.544 59.0005 63.544H53.9908V48.6889C54.2538 48.661 54.5114 48.615 54.7623 48.552L62.1216 54.0118C62.9986 54.6624 64.4546 54.534 64.9785 53.2948C65.5354 51.9777 66.0338 49.7146 64.5337 47.9274C63.7068 46.9421 62.4591 45.9886 61.2696 45.1812C60.472 44.6399 59.6618 44.1392 58.9683 43.7186C58.9897 43.5195 59.0007 43.3173 59.0007 43.1125C59.0007 41.6327 58.4275 40.2867 57.491 39.2846L60.7094 31.1437C61.1109 30.1283 60.61 28.7551 59.2774 28.5698ZM48.7928 46.3209C48.3612 45.7033 48.0509 44.9947 47.8962 44.2297L40.5971 47.3926C41.3233 48.2877 42.3182 48.9607 43.4011 48.7696C44.3634 48.5997 45.5528 48.0834 46.7765 47.4434C47.5093 47.0602 48.1772 46.6763 48.7928 46.3209ZM63.2113 52.3299L56.7957 47.5703C57.4487 47.0711 57.9887 46.4316 58.3709 45.697C58.9355 46.0435 59.5438 46.4271 60.1464 46.8361C61.3079 47.6244 62.3619 48.4507 63.0018 49.2132C63.7087 50.0554 63.6234 51.2535 63.2113 52.3299ZM55.8252 38.0582L58.8028 30.5265C57.6565 30.407 56.4771 30.6347 55.8465 31.5355C55.2678 32.3623 54.6223 33.7811 54.0384 35.2943C53.744 36.0572 53.4739 36.8207 53.2448 37.5066C53.294 37.5053 53.3433 37.5047 53.3928 37.5047C54.2643 37.5047 55.0894 37.7035 55.8252 38.0582ZM57.0007 43.1125C57.0007 45.1051 55.3854 46.7204 53.3928 46.7204C51.4002 46.7204 49.7849 45.1051 49.7849 43.1125C49.7849 41.12 51.4002 39.5047 53.3928 39.5047C55.3854 39.5047 57.0007 41.12 57.0007 43.1125Z" fill="white"/>
<defs>
<filter id="filter0_d_3_1989" x="0" y="0" width="106" height="106" filterUnits="userSpaceOnUse" color-interpolation-filters="sRGB">
<feFlood flood-opacity="0" result="BackgroundImageFix"/>
<feColorMatrix in="SourceAlpha" type="matrix" values="0 0 0 0 0 0 0 0 0 0 0 0 0 0 0 0 0 0 127 0" result="hardAlpha"/>
<feMorphology radius="1" operator="dilate" in="SourceAlpha" result="effect1_dropShadow_3_1989"/>
<feOffset dy="5"/>
<feGaussianBlur stdDeviation="6"/>
<feComposite in2="hardAlpha" operator="out"/>
<feColorMatrix type="matrix" values="0 0 0 0 0.439216 0 0 0 0 0.431373 0 0 0 0 0.431373 0 0 0 0.15 0"/>
<feBlend mode="normal" in2="BackgroundImageFix" result="effect1_dropShadow_3_1989"/>
<feBlend mode="normal" in="SourceGraphic" in2="effect1_dropShadow_3_1989" result="shape"/>
</filter>
</defs>
</svg>
